<svg width="58" height="33" viewBox="0 0 58 33" fill="none" xmlns="http://www.w3.org/2000/svg">
<path d="M52.9891 28.3523C58.4482 24.2607 57.8986 19.0064 57.8812 18.9464V2.96367C57.8812 2.4338 57.5764 1.92564 57.0338 1.55098C56.4913 1.17631 55.7554 0.96582 54.9882 0.96582H37.6299C34.4388 0.96582 31.8438 2.75789 31.8438 4.96151V18.9464C31.8438 19.4763 32.1486 19.9844 32.6911 20.3591C33.2337 20.7338 33.9695 20.9443 34.7368 20.9443H43.6416C43.5805 21.932 43.1531 22.8923 42.4005 23.7333C40.9308 25.3335 38.1622 26.4264 34.1669 26.9778L31.8438 27.2974V32.9313H34.7368C42.7882 32.9313 48.9301 31.391 52.9891 28.3523ZM21.1453 28.3523C26.6074 24.2607 26.0548 19.0064 26.0374 18.9464V2.96367C26.0374 2.4338 25.7326 1.92564 25.1901 1.55098C24.6475 1.17631 23.9117 0.96582 23.1444 0.96582H5.78609C2.59506 0.96582 0 2.75789 0 4.96151V18.9464C0 19.4763 0.304802 19.9844 0.847354 20.3591C1.38991 20.7338 2.12576 20.9443 2.89305 20.9443H11.7978C11.7367 21.932 11.3094 22.8923 10.5567 23.7333C9.08706 25.3335 6.31842 26.4264 2.32312 26.9778L0 27.2974V32.9313H2.89305C10.9444 32.9313 17.0863 31.391 21.1453 28.3523Z" fill="white"/>
</svg>
